HIERARCHY
ROOT Hips
{
	OFFSET 0.000000 0.000000 0.000000
	CHANNELS 6 Xposition Yposition Zposition Xrotation Yrotation Zrotation
	JOINT LeftUpLeg_virtual
	{
		OFFSET 0.000000 0.000000 0.000000
		CHANNELS 3 Xrotation Yrotation Zrotation
		JOINT LeftUpLeg
		{
			OFFSET 15.427100 -6.655098 0.678600
			CHANNELS 3 Xrotation Yrotation Zrotation
			JOINT LeftLeg
			{
				OFFSET 4.081073 -39.591068 13.024000
				CHANNELS 3 Xrotation Yrotation Zrotation
				JOINT LeftFoot
				{
					OFFSET -4.081074 -37.707932 -15.979700
					CHANNELS 3 Xrotation Yrotation Zrotation
					JOINT LeftToeBase
					{
						OFFSET 5.346399 -15.068900 20.645000
						CHANNELS 3 Xrotation Yrotation Zrotation
						JOINT LeftToe_End
						{
							OFFSET 2.754700 0.931300 11.300900
							CHANNELS 3 Xrotation Yrotation Zrotation
							End Site
							{
								OFFSET 0 0 0
							}
						}
					}
				}
			}
		}
	}
	JOINT RightUpLeg_virtual
	{
		OFFSET 0.000000 0.000000 0.000000
		CHANNELS 3 Xrotation Yrotation Zrotation
		JOINT RightUpLeg
		{
			OFFSET -15.569500 -6.655098 0.678600
			CHANNELS 3 Xrotation Yrotation Zrotation
			JOINT RightLeg
			{
				OFFSET -4.081825 -39.591045 13.023800
				CHANNELS 3 Xrotation Yrotation Zrotation
				JOINT RightFoot
				{
					OFFSET 4.081824 -37.707954 -15.979600
					CHANNELS 3 Xrotation Yrotation Zrotation
					JOINT RightToeBase
					{
						OFFSET -5.346400 -15.068900 20.645000
						CHANNELS 3 Xrotation Yrotation Zrotation
						JOINT RightToe_End
						{
							OFFSET -2.754700 0.931300 11.300900
							CHANNELS 3 Xrotation Yrotation Zrotation
							End Site
							{
								OFFSET 0 0 0
							}
						}
					}
				}
			}
		}
	}
	JOINT Spine_virtual
	{
		OFFSET 0.000000 0.000000 0.000000
		CHANNELS 3 Xrotation Yrotation Zrotation
		JOINT Spine
		{
			OFFSET -0.279200 12.230698 -2.892100
			CHANNELS 3 Xrotation Yrotation Zrotation
			JOINT Spine1
			{
				OFFSET -0.232667 10.192268 -1.242267
				CHANNELS 3 Xrotation Yrotation Zrotation
				JOINT Spine1_split
				{
					OFFSET -0.232667 10.192268 -1.242267
					CHANNELS 3 Xrotation Yrotation Zrotation
					JOINT Spine2
					{
						OFFSET -0.232667 10.192268 -1.242267
						CHANNELS 3 Xrotation Yrotation Zrotation
						JOINT Neck_virtual
						{
							OFFSET 0.000000 0.000000 0.000000
							CHANNELS 3 Xrotation Yrotation Zrotation
							JOINT Neck
							{
								OFFSET -0.418800 17.814194 8.416900
								CHANNELS 3 Xrotation Yrotation Zrotation
								JOINT Head
								{
									OFFSET 0.000000 7.031097 3.806800
									CHANNELS 3 Xrotation Yrotation Zrotation
									JOINT HeadTop_End
									{
										OFFSET 0.000000 24.646606 12.978600
										CHANNELS 3 Xrotation Yrotation Zrotation
										End Site
										{
											OFFSET 0 0 0
										}
									}
								}
							}
						}
						JOINT LeftShoulder_virtual
						{
							OFFSET 0.000000 0.000000 0.000000
							CHANNELS 3 Xrotation Yrotation Zrotation
							JOINT LeftShoulder
							{
								OFFSET 8.476499 7.247704 -3.868750
								CHANNELS 3 Xrotation Yrotation Zrotation
								JOINT LeftShoulder_split
								{
									OFFSET 8.476499 7.247704 -3.868750
									CHANNELS 3 Xrotation Yrotation Zrotation
									JOINT LeftArm
									{
										OFFSET 9.308998 -2.777710 0.208600
										CHANNELS 3 Xrotation Yrotation Zrotation
										JOINT LeftForeArm
										{
											OFFSET 29.972298 0.000000 0.000000
											CHANNELS 3 Xrotation Yrotation Zrotation
											JOINT LeftHand
											{
												OFFSET 26.026505 0.000000 0.000000
												CHANNELS 3 Xrotation Yrotation Zrotation
												End Site
												{
													OFFSET 0 0 0
												}
											}
										}
									}
								}
							}
						}
						JOINT RightShoulder_virtual
						{
							OFFSET 0.000000 0.000000 0.000000
							CHANNELS 3 Xrotation Yrotation Zrotation
							JOINT RightShoulder
							{
								OFFSET -7.570500 7.247704 -3.868750
								CHANNELS 3 Xrotation Yrotation Zrotation
								JOINT RightShoulder_split
								{
									OFFSET -7.570500 7.247704 -3.868750
									CHANNELS 3 Xrotation Yrotation Zrotation
									JOINT RightArm
									{
										OFFSET -9.308998 -2.777710 0.208500
										CHANNELS 3 Xrotation Yrotation Zrotation
										JOINT RightForeArm
										{
											OFFSET -29.972300 0.000000 0.000000
											CHANNELS 3 Xrotation Yrotation Zrotation
											JOINT RightHand
											{
												OFFSET -26.026505 0.000000 0.000000
												CHANNELS 3 Xrotation Yrotation Zrotation
												End Site
												{
													OFFSET 0 0 0
												}
											}
										}
									}
								}
							}
						}
					}
				}
			}
		}
	}
}
MOTION
Frames: 9
Frame Time: 0.03333333
0.531421 93.213707 -1.574947 0.000000 0.000000 0.000000 -3.087396 4.125905 -1.936993 -8.149970 10.262686 14.710752 16.687966 -5.278099 -1.402066 -8.093940 0.655835 -5.275530 0.236558 0.022918 -0.875709 0.000000 0.000000 0.000000 -3.396364 5.129572 -1.753913 -10.727602 -4.778245 -2.430335 14.391343 2.685692 0.259265 0.643010 0.491116 2.256206 -0.011615 0.655255 2.111730 0.000000 0.000000 0.000000 -3.503364 6.678950 -1.714027 11.359773 -0.345189 1.417358 2.617370 0.034766 -0.308131 0.314881 -1.699310 0.916246 0.000000 0.000000 0.000000 -4.511642 -0.149263 0.278591 0.099832 -0.985269 0.568823 7.288673 -2.984075 -1.706851 0.000000 0.000000 0.000000 -4.748666 -0.454380 0.292880 0.194825 -3.996278 -7.935741 -1.135129 -0.830672 0.630815 6.616628 -1.185581 -73.478123 5.185515 -8.180484 3.428046 0.000000 0.000000 0.000000 -5.482069 -0.653784 0.392013 0.961909 8.401933 6.001224 -3.975864 -0.850372 -0.033142 4.850277 12.247110 75.825693 16.449066 18.277192 -3.891897 0.000000 0.000000 0.000000 
0.761321 93.322220 -1.656973 0.000000 0.000000 0.000000 -2.950583 4.101010 -1.894166 -7.966835 10.117156 14.482117 16.636544 -5.059832 -1.419385 -8.330240 0.789878 -5.249998 0.385767 0.003189 -0.876523 0.000000 0.000000 0.000000 -3.167390 5.028228 -1.783742 -10.849362 -5.010474 -2.638921 13.937978 2.661692 0.175652 0.570988 0.710066 2.057480 -0.075117 0.669134 2.014367 0.000000 0.000000 0.000000 -3.274116 6.360305 -1.744201 11.221185 -0.289169 1.439365 2.609837 0.047170 -0.327453 0.343079 -1.862069 0.761390 0.000000 0.000000 0.000000 -4.412937 -0.124284 0.270693 0.112588 -0.920531 0.541376 7.324703 -3.129849 -1.545762 0.000000 0.000000 0.000000 -4.744857 -0.436536 0.244924 0.251082 -3.940314 -7.830598 -1.201038 -0.798802 0.704977 6.493245 -1.319149 -73.500991 5.125471 -8.363037 3.396131 0.000000 0.000000 0.000000 -5.491134 -0.628301 0.412349 0.934390 8.076376 5.840811 -3.994476 -0.802279 -0.051054 4.757774 12.659420 75.727141 16.524654 18.596952 -4.109507 0.000000 0.000000 0.000000 
1.095684 93.348610 -1.591291 0.000000 0.000000 0.000000 -2.944739 4.129998 -1.910303 -7.753132 9.986472 14.213615 16.725863 -4.788273 -1.499055 -8.731977 0.967602 -5.160891 0.629763 -0.019275 -0.844710 0.000000 0.000000 0.000000 -2.983042 4.891114 -1.913846 -10.527359 -5.301079 -2.916453 13.255984 2.654806 0.052498 0.111010 1.193688 1.801602 -0.287159 0.713190 1.658489 0.000000 0.000000 0.000000 -3.087926 5.981146 -1.742158 11.057815 -0.151521 1.461474 2.623656 0.088593 -0.361610 0.359471 -1.866159 0.635783 0.000000 0.000000 0.000000 -4.265974 -0.078462 0.253015 0.060831 -0.828786 0.443364 7.152350 -3.250286 -1.318858 0.000000 0.000000 0.000000 -4.682388 -0.393871 0.194771 0.326747 -3.885281 -7.622049 -1.325955 -0.890455 0.760741 6.332522 -1.625994 -73.399317 5.162794 -8.505448 3.334605 0.000000 0.000000 0.000000 -5.405965 -0.580524 0.403840 0.949270 7.760859 5.608472 -3.976953 -0.879241 -0.029694 4.626783 13.222523 75.614757 16.660331 19.190455 -4.727284 0.000000 0.000000 0.000000 
1.515091 93.260078 -1.324366 0.000000 0.000000 0.000000 -3.044955 4.160191 -1.966339 -7.508829 9.917712 13.915285 16.885392 -4.471391 -1.641162 -9.187192 1.123377 -5.031859 0.728824 -0.049351 -0.747848 0.000000 0.000000 0.000000 -2.879839 4.740598 -2.044786 -9.897422 -5.684109 -3.345949 12.658700 2.662587 0.074674 -0.592298 1.833224 1.482986 -0.469144 0.788436 1.139242 0.000000 0.000000 0.000000 -3.033937 5.627283 -1.711079 10.888966 0.011530 1.481966 2.656240 0.147669 -0.385539 0.351349 -1.744232 0.574690 0.000000 0.000000 0.000000 -4.109307 -0.027542 0.250592 -0.026123 -0.732647 0.296024 6.805715 -3.366588 -1.035525 0.000000 0.000000 0.000000 -4.571368 -0.338377 0.163074 0.420462 -3.828881 -7.362748 -1.533541 -1.020920 0.773149 6.200590 -2.092574 -73.286454 5.296951 -8.512291 3.241325 0.000000 0.000000 0.000000 -5.238724 -0.521737 0.386727 1.008551 7.477529 5.331200 -3.975477 -1.023621 -0.058804 4.448180 13.726943 75.536380 16.791930 19.904810 -5.638105 0.000000 0.000000 0.000000 
1.991318 93.114502 -0.867849 0.000000 0.000000 0.000000 -3.200330 4.106598 -1.991578 -7.161368 9.860931 13.576781 17.070945 -4.081321 -1.814265 -9.708195 1.236455 -4.783014 0.556882 -0.079191 -0.560226 0.000000 0.000000 0.000000 -2.871606 4.531739 -2.117800 -9.098838 -6.129206 -3.968998 12.207560 2.754198 0.342826 -1.390032 2.504276 1.324981 -0.652028 0.857907 0.575445 0.000000 0.000000 0.000000 -3.094984 5.355517 -1.688209 10.727266 0.163615 1.490384 2.699184 0.209036 -0.374037 0.338280 -1.527316 0.564163 0.000000 0.000000 0.000000 -3.977328 0.014059 0.285384 -0.117789 -0.638340 0.149286 6.360863 -3.477670 -0.723537 0.000000 0.000000 0.000000 -4.435858 -0.283004 0.170481 0.517318 -3.779858 -7.127771 -1.768868 -1.214099 0.725243 6.124497 -2.676679 -73.239736 5.513207 -8.399464 3.132156 0.000000 0.000000 0.000000 -5.028880 -0.466393 0.386693 1.118205 7.251500 5.054841 -3.957933 -1.105434 -0.104496 4.163663 14.038600 75.540970 16.814085 20.568524 -6.690765 0.000000 0.000000 0.000000 
2.461193 92.980377 -0.374084 0.000000 0.000000 0.000000 -3.386170 3.988356 -1.919388 -6.681686 9.747615 13.196988 17.297283 -3.606766 -1.914080 -10.271119 1.331155 -4.328800 0.338284 -0.103670 -0.343260 0.000000 0.000000 0.000000 -3.012107 4.302261 -2.115236 -8.356277 -6.492783 -4.735619 12.041296 2.916953 0.829617 -2.096752 3.085571 1.529089 -0.861326 0.903515 0.064560 0.000000 0.000000 0.000000 -3.236372 5.190321 -1.713463 10.609076 0.271256 1.473571 2.724098 0.259673 -0.315037 0.390702 -1.167861 0.539407 0.000000 0.000000 0.000000 -3.881950 0.037037 0.362954 -0.187967 -0.547677 0.054833 5.874611 -3.580207 -0.395047 0.000000 0.000000 0.000000 -4.310657 -0.238313 0.226540 0.607944 -3.753728 -6.986421 -1.967570 -1.475178 0.641946 6.069899 -3.283445 -73.306392 5.793752 -8.226761 3.010692 0.000000 0.000000 0.000000 -4.818208 -0.420712 0.418816 1.258931 7.106491 4.800055 -3.917954 -1.129800 -0.143527 3.744091 14.067125 75.637262 16.617087 20.980196 -7.710628 0.000000 0.000000 0.000000 
2.907712 92.881439 0.041361 0.000000 0.000000 0.000000 -3.592212 3.766968 -1.819303 -5.966593 9.508538 12.704540 17.523221 -3.130415 -1.861833 -10.863013 1.473156 -3.734561 0.262519 -0.106149 -0.151117 0.000000 0.000000 0.000000 -3.252572 4.085218 -2.026374 -7.698500 -6.602027 -5.551933 12.107547 3.080268 1.337359 -2.683652 3.475863 2.113296 -1.181593 0.924515 -0.276279 0.000000 0.000000 0.000000 -3.382982 5.127316 -1.772364 10.561652 0.323892 1.413235 2.689841 0.290801 -0.211917 0.442088 -0.763791 0.524114 0.000000 0.000000 0.000000 -3.832484 0.042207 0.475189 -0.242661 -0.462312 0.039280 5.390351 -3.669899 -0.058649 0.000000 0.000000 0.000000 -4.230359 -0.206152 0.332783 0.671128 -3.748632 -6.929829 -2.016504 -1.712868 0.552465 5.978497 -3.816728 -73.474599 6.124740 -8.058345 2.850858 0.000000 0.000000 0.000000 -4.660529 -0.389346 0.485795 1.399273 7.035182 4.597021 -3.813305 -1.123343 -0.128723 3.193536 13.845237 75.802997 16.166325 20.995225 -8.574532 0.000000 0.000000 0.000000 
3.341949 92.819832 0.372133 0.000000 0.000000 0.000000 -3.797000 3.564991 -1.735277 -5.130720 9.161725 12.131415 17.710563 -2.736168 -1.650861 -11.452360 1.715485 -3.138013 0.364506 -0.070097 0.003523 0.000000 0.000000 0.000000 -3.580594 3.893316 -1.909542 -7.256799 -6.333372 -6.233469 12.361680 3.111669 1.643638 -3.336891 3.605421 2.859252 -1.381457 0.931083 -0.366531 0.000000 0.000000 0.000000 -3.510906 5.123848 -1.846718 10.652095 0.334744 1.315700 2.573104 0.301551 -0.074447 0.381617 -0.429289 0.512652 0.000000 0.000000 0.000000 -3.833662 0.038749 0.599768 -0.293421 -0.380743 0.114010 4.922990 -3.692643 0.264653 0.000000 0.000000 0.000000 -4.215938 -0.187480 0.480716 0.692534 -3.758880 -6.924812 -1.999617 -1.931159 0.454074 5.827629 -4.232673 -73.656753 6.500930 -7.910627 2.639106 0.000000 0.000000 0.000000 -4.590381 -0.371125 0.580195 1.513009 7.024234 4.455960 -3.589486 -1.142281 -0.043667 2.590570 13.536212 75.966149 15.487565 20.614715 -9.200904 0.000000 0.000000 0.000000 
3.780193 92.743729 0.657394 0.000000 0.000000 0.000000 -3.977311 3.428022 -1.691142 -4.334489 8.887879 11.525767 17.841064 -2.498057 -1.331041 -11.999495 2.004715 -2.660713 0.524605 -0.009693 0.102502 0.000000 0.000000 0.000000 -3.888572 3.796035 -1.837686 -7.243352 -5.654537 -6.719487 13.054011 2.862100 1.687504 -3.893566 3.469161 3.368672 -1.536370 1.010727 -0.216014 0.000000 0.000000 0.000000 -3.650799 5.165777 -1.919666 10.936149 0.288435 1.203164 2.382027 0.287343 0.087398 0.238419 -0.232754 0.526557 0.000000 0.000000 0.000000 -3.882019 0.025512 0.722295 -0.366919 -0.320397 0.249491 4.434586 -3.642055 0.551335 0.000000 0.000000 0.000000 -4.262157 -0.184825 0.660953 0.665791 -3.798617 -6.927933 -2.050494 -1.987317 0.355251 5.659095 -4.592652 -73.767600 6.913068 -7.749571 2.352036 0.000000 0.000000 0.000000 -4.597959 -0.368918 0.690565 1.596001 7.029625 4.340835 -3.282581 -1.112764 0.068670 2.012788 13.258285 76.059361 14.666339 20.047672 -9.549797 0.000000 0.000000 0.000000 
